<svg width="532" height="73" viewBox="0 0 532 73" fill="none" xmlns="http://www.w3.org/2000/svg">
<path d="M4 2V71.8964L25.8332 2V71.8964L47.6668 2V71.8964L69.5 2V71.8964L91.3332 2V71.8964L113.167 2V71.8964L135 2V71.8964L156.833 2V71.8964L178.667 2V71.8964L200.5 2V71.8964L222.333 2V71.8964L244.167 2V71.8964L266 2V71.8964L287.833 2V71.8964L309.667 2V71.8964L331.5 2V71.8964L353.333 2V71.8964L375.167 2V71.8964L397 2V71.8964L418.833 2V71.8964L440.667 2V71.8964L462.5 2V71.8964L484.333 2V71.8964L506.167 2V71.8964L528 2V71.8964" stroke="url(#paint0_linear_81_685)" stroke-width="7.01786"/>
<defs>
<linearGradient id="paint0_linear_81_685" x1="4" y1="-49.5" x2="563.5" y2="134.5" gradientUnits="userSpaceOnUse">
<stop stop-opacity="0"/>
<stop offset="0.126251" stop-opacity="0.0461972"/>
<stop offset="1" stop-opacity="0"/>
</linearGradient>
</defs>
</svg>
